<svg xmlns="http://www.w3.org/2000/svg" width="170" height="38" viewBox="0 0 170 38" fill="none"><path d="M45.6089 19.0045C45.6089 17.8711 45.862 16.8588 46.3682 15.9676C46.8853 15.0653 47.584 14.3666 48.4643 13.8714C49.3556 13.3653 50.3514 13.1122 51.4517 13.1122C52.7391 13.1122 53.8669 13.4423 54.8352 14.1025C55.8035 14.7627 56.4802 15.676 56.8654 16.8423H54.208C53.944 16.2922 53.5698 15.8795 53.0857 15.6045C52.6126 15.3294 52.0624 15.1918 51.4352 15.1918C50.764 15.1918 50.1643 15.3514 49.6362 15.6705C49.119 15.9786 48.7119 16.4187 48.4148 16.9909C48.1287 17.5631 47.9856 18.2343 47.9856 19.0045C47.9856 19.7637 48.1287 20.4349 48.4148 21.0181C48.7119 21.5903 49.119 22.0359 49.6362 22.355C50.1643 22.6631 50.764 22.8172 51.4352 22.8172C52.0624 22.8172 52.6126 22.6796 53.0857 22.4045C53.5698 22.1184 53.944 21.7003 54.208 21.1501H56.8654C56.4802 22.3275 55.8035 23.2463 54.8352 23.9065C53.8779 24.5557 52.7501 24.8803 51.4517 24.8803C50.3514 24.8803 49.3556 24.6327 48.4643 24.1376C47.584 23.6314 46.8853 22.9327 46.3682 22.0414C45.862 21.1501 45.6089 20.1378 45.6089 19.0045ZM67.4711 15.6375V24.7812H65.1439V23.6259C64.8468 24.022 64.4562 24.3356 63.9721 24.5667C63.4989 24.7868 62.9818 24.8968 62.4206 24.8968C61.7054 24.8968 61.0727 24.7482 60.5225 24.4511C59.9723 24.1431 59.5377 23.6974 59.2186 23.1142C58.9105 22.5201 58.7565 21.8158 58.7565 21.0016V15.6375H61.0672V20.6715C61.0672 21.3977 61.2487 21.9589 61.6118 22.355C61.9749 22.7401 62.4701 22.9327 63.0973 22.9327C63.7355 22.9327 64.2361 22.7401 64.5992 22.355C64.9624 21.9589 65.1439 21.3977 65.1439 20.6715V15.6375H67.4711ZM73.2501 24.9298C72.5018 24.9298 71.8306 24.7978 71.2365 24.5337C70.6423 24.2586 70.1691 23.89 69.817 23.4278C69.4759 22.9657 69.2889 22.454 69.2559 21.8929H71.5831C71.6271 22.245 71.7976 22.5366 72.0947 22.7676C72.4028 22.9987 72.7824 23.1142 73.2336 23.1142C73.6737 23.1142 74.0148 23.0262 74.2569 22.8502C74.51 22.6741 74.6365 22.4485 74.6365 22.1735C74.6365 21.8764 74.4824 21.6563 74.1744 21.5133C73.8773 21.3592 73.3986 21.1942 72.7384 21.0181C72.0562 20.8531 71.495 20.6825 71.0549 20.5064C70.6258 20.3304 70.2517 20.0608 69.9326 19.6977C69.6245 19.3346 69.4704 18.8449 69.4704 18.2288C69.4704 17.7226 69.6135 17.2605 69.8996 16.8423C70.1966 16.4242 70.6148 16.0941 71.1539 15.852C71.7041 15.61 72.3478 15.4889 73.085 15.4889C74.1744 15.4889 75.0436 15.764 75.6928 16.3142C76.342 16.8533 76.6996 17.5851 76.7656 18.5093H74.554C74.521 18.1462 74.3669 17.8601 74.0918 17.6511C73.8277 17.431 73.4701 17.321 73.019 17.321C72.6009 17.321 72.2763 17.398 72.0452 17.552C71.8251 17.7061 71.7151 17.9207 71.7151 18.1957C71.7151 18.5038 71.8692 18.7404 72.1772 18.9055C72.4853 19.0595 72.964 19.2191 73.6132 19.3841C74.2734 19.5492 74.818 19.7197 75.2472 19.8958C75.6763 20.0718 76.0449 20.3469 76.353 20.721C76.6721 21.0841 76.8372 21.5683 76.8482 22.1735C76.8482 22.7016 76.6996 23.1748 76.4025 23.5929C76.1164 24.011 75.6983 24.3411 75.1481 24.5832C74.609 24.8143 73.9763 24.9298 73.2501 24.9298ZM81.4353 17.5355V21.9589C81.4353 22.267 81.5068 22.4926 81.6498 22.6356C81.8039 22.7676 82.057 22.8337 82.4091 22.8337H83.4819V24.7812H82.0295C80.0819 24.7812 79.1081 23.835 79.1081 21.9424V17.5355H78.0187V15.6375H79.1081V13.3763H81.4353V15.6375H83.4819V17.5355H81.4353ZM89.2041 24.9298C88.3238 24.9298 87.5316 24.7372 86.8274 24.3521C86.1232 23.956 85.5675 23.4003 85.1604 22.6851C84.7643 21.9699 84.5662 21.1446 84.5662 20.2094C84.5662 19.2741 84.7698 18.4488 85.1769 17.7336C85.595 17.0184 86.1617 16.4682 86.8769 16.0831C87.5921 15.687 88.3899 15.4889 89.2701 15.4889C90.1504 15.4889 90.9481 15.687 91.6634 16.0831C92.3786 16.4682 92.9397 17.0184 93.3469 17.7336C93.765 18.4488 93.9741 19.2741 93.9741 20.2094C93.9741 21.1446 93.7595 21.9699 93.3304 22.6851C92.9122 23.4003 92.3401 23.956 91.6138 24.3521C90.8986 24.7372 90.0954 24.9298 89.2041 24.9298ZM89.2041 22.9162C89.6222 22.9162 90.0129 22.8172 90.376 22.6191C90.7501 22.41 91.0472 22.1019 91.2672 21.6948C91.4873 21.2877 91.5973 20.7925 91.5973 20.2094C91.5973 19.3401 91.3663 18.6744 90.9041 18.2122C90.453 17.7391 89.8973 17.5025 89.2371 17.5025C88.5769 17.5025 88.0213 17.7391 87.5701 18.2122C87.13 18.6744 86.9099 19.3401 86.9099 20.2094C86.9099 21.0786 87.1245 21.7498 87.5536 22.223C87.9937 22.6851 88.5439 22.9162 89.2041 22.9162ZM107.025 15.5054C108.147 15.5054 109.049 15.852 109.731 16.5452C110.425 17.2275 110.771 18.1847 110.771 19.4171V24.7812H108.46V19.7307C108.46 19.0155 108.279 18.4708 107.916 18.0967C107.553 17.7116 107.058 17.519 106.43 17.519C105.803 17.519 105.302 17.7116 104.928 18.0967C104.565 18.4708 104.384 19.0155 104.384 19.7307V24.7812H102.073V19.7307C102.073 19.0155 101.891 18.4708 101.528 18.0967C101.165 17.7116 100.67 17.519 100.043 17.519C99.4047 17.519 98.8985 17.7116 98.5244 18.0967C98.1613 18.4708 97.9798 19.0155 97.9798 19.7307V24.7812H95.6691V15.6375H97.9798V16.7433C98.2768 16.3582 98.6565 16.0556 99.1186 15.8355C99.5917 15.6155 100.109 15.5054 100.67 15.5054C101.385 15.5054 102.023 15.6595 102.585 15.9676C103.146 16.2647 103.58 16.6938 103.889 17.255C104.186 16.7268 104.615 16.3032 105.176 15.9841C105.748 15.665 106.364 15.5054 107.025 15.5054ZM121.464 20.0113C121.464 20.3414 121.442 20.6385 121.398 20.9026H114.713C114.768 21.5628 114.999 22.0799 115.407 22.454C115.814 22.8282 116.314 23.0152 116.909 23.0152C117.767 23.0152 118.378 22.6466 118.741 21.9094H121.233C120.969 22.7896 120.463 23.5159 119.714 24.088C118.966 24.6492 118.047 24.9298 116.958 24.9298C116.078 24.9298 115.286 24.7372 114.581 24.3521C113.888 23.956 113.343 23.4003 112.947 22.6851C112.562 21.9699 112.37 21.1446 112.37 20.2094C112.37 19.2631 112.562 18.4323 112.947 17.7171C113.332 17.0019 113.872 16.4517 114.565 16.0666C115.258 15.6815 116.056 15.4889 116.958 15.4889C117.827 15.4889 118.603 15.676 119.285 16.0501C119.979 16.4242 120.512 16.9579 120.886 17.6511C121.271 18.3333 121.464 19.12 121.464 20.0113ZM119.071 19.3511C119.06 18.7569 118.845 18.2838 118.427 17.9317C118.009 17.5686 117.497 17.387 116.892 17.387C116.32 17.387 115.836 17.5631 115.44 17.9152C115.055 18.2563 114.818 18.7349 114.73 19.3511H119.071ZM125.461 17.0569C125.758 16.5728 126.143 16.1931 126.617 15.9181C127.101 15.643 127.651 15.5054 128.267 15.5054V17.9317H127.656C126.93 17.9317 126.38 18.1022 126.006 18.4433C125.643 18.7844 125.461 19.3786 125.461 20.2259V24.7812H123.151V15.6375H125.461V17.0569ZM132.134 22.9492H135.93V24.7812H129.823V13.2607H132.134V22.9492ZM136.805 20.1763C136.805 19.2521 136.986 18.4323 137.35 17.7171C137.724 17.0019 138.224 16.4517 138.851 16.0666C139.49 15.6815 140.199 15.4889 140.981 15.4889C141.663 15.4889 142.257 15.6265 142.763 15.9015C143.28 16.1766 143.693 16.5232 144.001 16.9414V15.6375H146.328V24.7812H144.001V23.4443C143.704 23.8735 143.291 24.2311 142.763 24.5172C142.246 24.7923 141.646 24.9298 140.964 24.9298C140.194 24.9298 139.49 24.7317 138.851 24.3356C138.224 23.9395 137.724 23.3838 137.35 22.6686C136.986 21.9424 136.805 21.1116 136.805 20.1763ZM144.001 20.2094C144.001 19.6482 143.891 19.1695 143.671 18.7734C143.451 18.3663 143.154 18.0582 142.78 17.8491C142.406 17.6291 142.004 17.519 141.575 17.519C141.146 17.519 140.75 17.6236 140.386 17.8326C140.023 18.0417 139.726 18.3498 139.495 18.7569C139.275 19.153 139.165 19.6262 139.165 20.1763C139.165 20.7265 139.275 21.2107 139.495 21.6288C139.726 22.0359 140.023 22.3495 140.386 22.5696C140.761 22.7896 141.157 22.8997 141.575 22.8997C142.004 22.8997 142.406 22.7951 142.78 22.5861C143.154 22.366 143.451 22.0579 143.671 21.6618C143.891 21.2547 144.001 20.7705 144.001 20.2094ZM150.896 16.9744C151.193 16.5342 151.6 16.1766 152.117 15.9015C152.645 15.6265 153.245 15.4889 153.916 15.4889C154.697 15.4889 155.402 15.6815 156.029 16.0666C156.667 16.4517 157.168 17.0019 157.531 17.7171C157.905 18.4213 158.092 19.2411 158.092 20.1763C158.092 21.1116 157.905 21.9424 157.531 22.6686C157.168 23.3838 156.667 23.9395 156.029 24.3356C155.402 24.7317 154.697 24.9298 153.916 24.9298C153.234 24.9298 152.634 24.7978 152.117 24.5337C151.611 24.2586 151.204 23.9065 150.896 23.4774V24.7812H148.585V12.5675H150.896V16.9744ZM155.732 20.1763C155.732 19.6262 155.616 19.153 155.385 18.7569C155.165 18.3498 154.868 18.0417 154.494 17.8326C154.131 17.6236 153.735 17.519 153.305 17.519C152.887 17.519 152.491 17.6291 152.117 17.8491C151.754 18.0582 151.457 18.3663 151.226 18.7734C151.006 19.1805 150.896 19.6592 150.896 20.2094C150.896 20.7595 151.006 21.2382 151.226 21.6453C151.457 22.0524 151.754 22.366 152.117 22.5861C152.491 22.7951 152.887 22.8997 153.305 22.8997C153.735 22.8997 154.131 22.7896 154.494 22.5696C154.868 22.3495 155.165 22.0359 155.385 21.6288C155.616 21.2217 155.732 20.7375 155.732 20.1763ZM163.27 24.9298C162.522 24.9298 161.851 24.7978 161.257 24.5337C160.662 24.2586 160.189 23.89 159.837 23.4278C159.496 22.9657 159.309 22.454 159.276 21.8929H161.603C161.647 22.245 161.818 22.5366 162.115 22.7676C162.423 22.9987 162.803 23.1142 163.254 23.1142C163.694 23.1142 164.035 23.0262 164.277 22.8502C164.53 22.6741 164.657 22.4485 164.657 22.1735C164.657 21.8764 164.503 21.6563 164.194 21.5133C163.897 21.3592 163.419 21.1942 162.758 21.0181C162.076 20.8531 161.515 20.6825 161.075 20.5064C160.646 20.3304 160.272 20.0608 159.953 19.6977C159.645 19.3346 159.49 18.8449 159.49 18.2288C159.49 17.7226 159.634 17.2605 159.92 16.8423C160.217 16.4242 160.635 16.0941 161.174 15.852C161.724 15.61 162.368 15.4889 163.105 15.4889C164.194 15.4889 165.064 15.764 165.713 16.3142C166.362 16.8533 166.72 17.5851 166.786 18.5093H164.574C164.541 18.1462 164.387 17.8601 164.112 17.6511C163.848 17.431 163.49 17.321 163.039 17.321C162.621 17.321 162.296 17.398 162.065 17.552C161.845 17.7061 161.735 17.9207 161.735 18.1957C161.735 18.5038 161.889 18.7404 162.197 18.9055C162.505 19.0595 162.984 19.2191 163.633 19.3841C164.293 19.5492 164.838 19.7197 165.267 19.8958C165.696 20.0718 166.065 20.3469 166.373 20.721C166.692 21.0841 166.857 21.5683 166.868 22.1735C166.868 22.7016 166.72 23.1748 166.423 23.5929C166.137 24.011 165.718 24.3411 165.168 24.5832C164.629 24.8143 163.996 24.9298 163.27 24.9298Z" fill="black"></path><path fill-rule="evenodd" clip-rule="evenodd" d="M15.5084 4.11776L16.5245 0H19.9203L20.669 4.11776L22.9685 4.75949L25.99 1.47063L29.0115 3.20864L27.2735 7.70075L29.0115 9.09116L33.049 7.70075L34.7068 10.642L31.4982 13.5833L32.0597 16.1502L36.3646 17.2465V20.5621L32.0597 21.5781L31.4982 23.6905L35.1614 26.9794L33.6105 30.295L29.0115 28.9045L27.2735 30.295L29.0115 34.2523L25.99 36.0705L22.9685 33.049L20.9364 33.5036L19.9203 37.9957H16.5245L15.5084 33.5036L13.2089 33.049L10.2944 36.0705L7.35314 34.2523L8.6366 30.295L7.35314 28.9045L2.67387 30.295L1.01607 26.9794L4.4921 23.6905L4.03754 21.391L0 20.5621V17.2465L4.03754 16.1502L4.4921 13.5833L1.55084 10.642L3.47603 7.70075L7.35314 9.09116L8.6366 7.70075L7.35314 3.20864L10.2944 1.47063L13.2089 4.75949L15.5084 4.11776ZM22.7444 15.7771C22.7444 17.3068 21.9746 18.6598 20.7946 19.483L26.0137 20.9624C25.5449 22.6161 24.5499 24.0738 23.1741 25.1226C21.7983 26.1713 20.1137 26.7562 18.3664 26.7918C16.6192 26.8273 14.9009 26.3117 13.4624 25.3202C12.024 24.3286 10.941 22.9132 10.3714 21.2807L15.5663 19.5668C14.3164 18.7535 13.4922 17.3598 13.4922 15.7771C13.4922 13.2682 15.5634 11.2344 18.1183 11.2344C20.6733 11.2344 22.7444 13.2682 22.7444 15.7771Z" fill="#24BC99"></path></svg>